{
  "accessors": [
    {
      "bufferView": 2,
      "componentType": 5126,
      "count": 65532,
      "max": [
        0.5920932292938232,
        0.9623908400535583,
        0.5769593119621277
      ],
      "min": [
        -1.471146583557129,
        0.3226863741874695,
        -0.6012484431266785
      ],
      "type": "VEC3"
    },
    {
      "bufferView": 2,
      "byteOffset": 786384,
      "componentType": 5126,
      "count": 65532,
      "max": [
        0.9999987483024597,
        0.9999982118606567,
        0.9999510049819946
      ],
      "min": [
        -0.9999659061431885,
        -0.999977707862854,
        -0.9999517798423767
      ],
      "type": "VEC3"
    },
    {
      "bufferView": 1,
      "componentType": 5126,
      "count": 65532,
      "max": [
        0.9995018243789673,
        0.9999165534973145
      ],
      "min": [
        0.0,
        0.0
      ],
      "type": "VEC2"
    },
    {
      "bufferView": 0,
      "componentType": 5125,
      "count": 339177,
      "type": "SCALAR"
    },
    {
      "bufferView": 2,
      "byteOffset": 1572768,
      "componentType": 5126,
      "count": 65532,
      "max": [
        0.589853048324585,
        0.9454906582832336,
        0.6166519522666931
      ],
      "min": [
        -0.9019713401794434,
        0.33129310607910156,
        -0.40159672498703003
      ],
      "type": "VEC3"
    },
    {
      "bufferView": 2,
      "byteOffset": 2359152,
      "componentType": 5126,
      "count": 65532,
      "max": [
        0.9998451471328735,
        0.9999839067459106,
        0.9999884963035583
      ],
      "min": [
        -0.9999485015869141,
        -0.9999994039535522,
        -0.9999663829803467
      ],
      "type": "VEC3"
    },
    {
      "bufferView": 1,
      "byteOffset": 524256,
      "componentType": 5126,
      "count": 65532,
      "max": [
        0.9958164095878601,
        0.9999544620513916
      ],
      "min": [
        0.00023869448341429234,
        1.2763426639139652e-05
      ],
      "type": "VEC2"
    },
    {
      "bufferView": 0,
      "byteOffset": 1356708,
      "componentType": 5125,
      "count": 342234,
      "type": "SCALAR"
    },
    {
      "bufferView": 2,
      "byteOffset": 3145536,
      "componentType": 5126,
      "count": 65532,
      "max": [
        0.005700916983187199,
        0.9614026546478271,
        0.4408628046512604
      ],
      "min": [
        -1.1720566749572754,
        0.45590394735336304,
        -0.5983006954193115
      ],
      "type": "VEC3"
    },
    {
      "bufferView": 2,
      "byteOffset": 3931920,
      "componentType": 5126,
      "count": 65532,
      "max": [
        0.9998230934143066,
        0.9999988675117493,
        0.9999513626098633
      ],
      "min": [
        -0.9999978542327881,
        -0.9999883770942688,
        -0.9999812841415405
      ],
      "type": "VEC3"
    },
    {
      "bufferView": 1,
      "byteOffset": 1048512,
      "componentType": 5126,
      "count": 65532,
      "max": [
        0.9994756579399109,
        0.9999945759773254
      ],
      "min": [
        0.00012413071817718446,
        0.0006190789863467216
      ],
      "type": "VEC2"
    },
    {
      "bufferView": 0,
      "byteOffset": 2725644,
      "componentType": 5125,
      "count": 337434,
      "type": "SCALAR"
    },
    {
      "bufferView": 2,
      "byteOffset": 4718304,
      "componentType": 5126,
      "count": 65532,
      "max": [
        -0.5350953340530396,
        1.0011523962020874,
        0.3807389438152313
      ],
      "min": [
        -1.306597352027893,
        0.4672884941101074,
        -0.4500137269496918
      ],
      "type": "VEC3"
    },
    {
      "bufferView": 2,
      "byteOffset": 5504688,
      "componentType": 5126,
      "count": 65532,
      "max": [
        0.9999909996986389,
        0.9999957084655762,
        0.9999421834945679
      ],
      "min": [
        -0.999954342842102,
        -0.9999997615814209,
        -0.9999974370002747
      ],
      "type": "VEC3"
    },
    {
      "bufferView": 1,
      "byteOffset": 1572768,
      "componentType": 5126,
      "count": 65532,
      "max": [
        0.9989880919456482,
        0.9990108609199524
      ],
      "min": [
        0.00011188781354576349,
        0.00023822486400604248
      ],
      "type": "VEC2"
    },
    {
      "bufferView": 0,
      "byteOffset": 4075380,
      "componentType": 5125,
      "count": 341445,
      "type": "SCALAR"
    },
    {
      "bufferView": 2,
      "byteOffset": 6291072,
      "componentType": 5126,
      "count": 65532,
      "max": [
        -0.505975067615509,
        0.9898017048835754,
        0.5272337794303894
      ],
      "min": [
        -1.515941858291626,
        0.45823466777801514,
        -0.4298020303249359
      ],
      "type": "VEC3"
    },
    {
      "bufferView": 2,
      "byteOffset": 7077456,
      "componentType": 5126,
      "count": 65532,
      "max": [
        0.9996255040168762,
        0.9999921917915344,
        0.9999903440475464
      ],
      "min": [
        -0.9999790191650391,
        -0.9999849200248718,
        -1.0
      ],
      "type": "VEC3"
    },
    {
      "bufferView": 1,
      "byteOffset": 2097024,
      "componentType": 5126,
      "count": 65532,
      "max": [
        0.9924430847167969,
        0.9972970485687256
      ],
      "min": [
        0.00023661447630729526,
        0.00019021332263946533
      ],
      "type": "VEC2"
    },
    {
      "bufferView": 0,
      "byteOffset": 5441160,
      "componentType": 5125,
      "count": 338487,
      "type": "SCALAR"
    },
    {
      "bufferView": 2,
      "byteOffset": 7863840,
      "componentType": 5126,
      "count": 65532,
      "max": [
        0.563973605632782,
        0.9864596128463745,
        0.5243658423423767
      ],
      "min": [
        -1.4352725744247437,
        0.17610697448253632,
        -0.8067551851272583
      ],
      "type": "VEC3"
    },
    {
      "bufferView": 2,
      "byteOffset": 8650224,
      "componentType": 5126,
      "count": 65532,
      "max": [
        0.9999979734420776,
        0.9999488592147827,
        0.999975860118866
      ],
      "min": [
        -0.9999856948852539,
        -0.9999940991401672,
        -0.9999881982803345
      ],
      "type": "VEC3"
    },
    {
      "bufferView": 1,
      "byteOffset": 2621280,
      "componentType": 5126,
      "count": 65532,
      "max": [
        0.9995003342628479,
        0.999882698059082
      ],
      "min": [
        1.3525851500162389e-05,
        1.2677803169935942e-05
      ],
      "type": "VEC2"
    },
    {
      "bufferView": 0,
      "byteOffset": 6795108,
      "componentType": 5125,
      "count": 312582,
      "type": "SCALAR"
    },
    {
      "bufferView": 2,
      "byteOffset": 9436608,
      "componentType": 5126,
      "count": 65532,
      "max": [
        0.5921851396560669,
        0.9447817802429199,
        0.617676854133606
      ],
      "min": [
        -0.6585160493850708,
        0.3234894871711731,
        -0.4096856713294983
      ],
      "type": "VEC3"
    },
    {
      "bufferView": 2,
      "byteOffset": 10222992,
      "componentType": 5126,
      "count": 65532,
      "max": [
        0.9999863505363464,
        0.9999881386756897,
        0.9999918341636658
      ],
      "min": [
        -0.9999948740005493,
        -0.9999979734420776,
        -0.9999784231185913
      ],
      "type": "VEC3"
    },
    {
      "bufferView": 1,
      "byteOffset": 3145536,
      "componentType": 5126,
      "count": 65532,
      "max": [
        0.999491274356842,
        0.999935507774353
      ],
      "min": [
        9.594019502401352e-06,
        2.5434419512748718e-05
      ],
      "type": "VEC2"
    },
    {
      "bufferView": 0,
      "byteOffset": 8045436,
      "componentType": 5125,
      "count": 293343,
      "type": "SCALAR"
    },
    {
      "bufferView": 2,
      "byteOffset": 11009376,
      "componentType": 5126,
      "count": 65532,
      "max": [
        -0.47614964842796326,
        1.0308297872543335,
        0.5271105170249939
      ],
      "min": [
        -1.5220580101013184,
        0.4198452830314636,
        -0.4496403634548187
      ],
      "type": "VEC3"
    },
    {
      "bufferView": 2,
      "byteOffset": 11795760,
      "componentType": 5126,
      "count": 65532,
      "max": [
        0.9999229311943054,
        0.9999948740005493,
        0.9999942183494568
      ],
      "min": [
        -0.9999814033508301,
        -0.9999985098838806,
        -1.0
      ],
      "type": "VEC3"
    },
    {
      "bufferView": 1,
      "byteOffset": 3669792,
      "componentType": 5126,
      "count": 65532,
      "max": [
        0.9993798136711121,
        0.9984148144721985
      ],
      "min": [
        5.4204730986384675e-05,
        9.23566403798759e-06
      ],
      "type": "VEC2"
    },
    {
      "bufferView": 0,
      "byteOffset": 9218808,
      "componentType": 5125,
      "count": 305460,
      "type": "SCALAR"
    },
    {
      "bufferView": 2,
      "byteOffset": 12582144,
      "componentType": 5126,
      "count": 65532,
      "max": [
        -0.08957180380821228,
        0.9866960644721985,
        0.48838213086128235
      ],
      "min": [
        -1.454421877861023,
        0.46741190552711487,
        -0.42107218503952026
      ],
      "type": "VEC3"
    },
    {
      "bufferView": 2,
      "byteOffset": 13368528,
      "componentType": 5126,
      "count": 65532,
      "max": [
        0.9999812245368958,
        0.9999935030937195,
        0.999988853931427
      ],
      "min": [
        -0.9999954700469971,
        -0.9999992847442627,
        -0.9999961853027344
      ],
      "type": "VEC3"
    },
    {
      "bufferView": 1,
      "byteOffset": 4194048,
      "componentType": 5126,
      "count": 65532,
      "max": [
        0.9994202852249146,
        0.9999914169311523
      ],
      "min": [
        1.3046651474724058e-05,
        0.0005963710136711597
      ],
      "type": "VEC2"
    },
    {
      "bufferView": 0,
      "byteOffset": 10440648,
      "componentType": 5125,
      "count": 290166,
      "type": "SCALAR"
    },
    {
      "bufferView": 2,
      "byteOffset": 14154912,
      "componentType": 5126,
      "count": 24737,
      "max": [
        -0.006619579158723354,
        0.9378378987312317,
        0.5605382919311523
      ],
      "min": [
        -0.5842222571372986,
        0.4162208139896393,
        -0.3554269075393677
      ],
      "type": "VEC3"
    },
    {
      "bufferView": 2,
      "byteOffset": 14451756,
      "componentType": 5126,
      "count": 24737,
      "max": [
        0.9999989867210388,
        0.999961793422699,
        0.9998749494552612
      ],
      "min": [
        -0.9998934864997864,
        -0.9997106194496155,
        -0.9999797940254211
      ],
      "type": "VEC3"
    },
    {
      "bufferView": 1,
      "byteOffset": 4718304,
      "componentType": 5126,
      "count": 24737,
      "max": [
        0.9994708299636841,
        0.9999712109565735
      ],
      "min": [
        6.022513844072819e-05,
        0.0005660373717546463
      ],
      "type": "VEC2"
    },
    {
      "bufferView": 0,
      "byteOffset": 11601312,
      "componentType": 5125,
      "count": 111696,
      "type": "SCALAR"
    }
  ],
  "asset": {
    "extras": {
      "author": "johnnokomis (https://sketchfab.com/johnnokomis)",
      "license": "CC-BY-4.0 (http://creativecommons.org/licenses/by/4.0/)",
      "source": "https://sketchfab.com/3d-models/2020-suzuki-sv650-motorcycle-f087d91981284d118e433aab36c6bccd",
      "title": "2020 Suzuki SV650 Motorcycle"
    },
    "generator": "Sketchfab-15.36.0",
    "version": "2.0"
  },
  "bufferViews": [
    {
      "buffer": 0,
      "byteLength": 12048096,
      "name": "floatBufferViews",
      "target": 34963
    },
    {
      "buffer": 0,
      "byteLength": 4916200,
      "byteOffset": 12048096,
      "byteStride": 8,
      "name": "floatBufferViews",
      "target": 34962
    },
    {
      "buffer": 0,
      "byteLength": 14748600,
      "byteOffset": 16964296,
      "byteStride": 12,
      "name": "floatBufferViews",
      "target": 34962
    }
  ],
  "buffers": [
    {
      "byteLength": 31712896,
      "uri": "scene.bin"
    }
  ],
  "extensionsUsed": [
    "KHR_materials_unlit"
  ],
  "images": [
    {
      "uri": "textures/material0_baseColor.jpeg"
    }
  ],
  "materials": [
    {
      "doubleSided": true,
      "extensions": {
        "KHR_materials_unlit": {}
      },
      "name": "material0",
      "pbrMetallicRoughness": {
        "baseColorTexture": {
          "index": 0
        },
        "metallicFactor": 0.0
      }
    }
  ],
  "meshes": [
    {
      "name": "Model_material0_0",
      "primitives": [
        {
          "attributes": {
            "NORMAL": 1,
            "POSITION": 0,
            "TEXCOORD_0": 2
          },
          "indices": 3,
          "material": 0,
          "mode": 4
        }
      ]
    },
    {
      "name": "Model_material0_0",
      "primitives": [
        {
          "attributes": {
            "NORMAL": 5,
            "POSITION": 4,
            "TEXCOORD_0": 6
          },
          "indices": 7,
          "material": 0,
          "mode": 4
        }
      ]
    },
    {
      "name": "Model_material0_0",
      "primitives": [
        {
          "attributes": {
            "NORMAL": 9,
            "POSITION": 8,
            "TEXCOORD_0": 10
          },
          "indices": 11,
          "material": 0,
          "mode": 4
        }
      ]
    },
    {
      "name": "Model_material0_0",
      "primitives": [
        {
          "attributes": {
            "NORMAL": 13,
            "POSITION": 12,
            "TEXCOORD_0": 14
          },
          "indices": 15,
          "material": 0,
          "mode": 4
        }
      ]
    },
    {
      "name": "Model_material0_0",
      "primitives": [
        {
          "attributes": {
            "NORMAL": 17,
            "POSITION": 16,
            "TEXCOORD_0": 18
          },
          "indices": 19,
          "material": 0,
          "mode": 4
        }
      ]
    },
    {
      "name": "Model_material0_0",
      "primitives": [
        {
          "attributes": {
            "NORMAL": 21,
            "POSITION": 20,
            "TEXCOORD_0": 22
          },
          "indices": 23,
          "material": 0,
          "mode": 4
        }
      ]
    },
    {
      "name": "Model_material0_0",
      "primitives": [
        {
          "attributes": {
            "NORMAL": 25,
            "POSITION": 24,
            "TEXCOORD_0": 26
          },
          "indices": 27,
          "material": 0,
          "mode": 4
        }
      ]
    },
    {
      "name": "Model_material0_0",
      "primitives": [
        {
          "attributes": {
            "NORMAL": 29,
            "POSITION": 28,
            "TEXCOORD_0": 30
          },
          "indices": 31,
          "material": 0,
          "mode": 4
        }
      ]
    },
    {
      "name": "Model_material0_0",
      "primitives": [
        {
          "attributes": {
            "NORMAL": 33,
            "POSITION": 32,
            "TEXCOORD_0": 34
          },
          "indices": 35,
          "material": 0,
          "mode": 4
        }
      ]
    },
    {
      "name": "Model_material0_0",
      "primitives": [
        {
          "attributes": {
            "NORMAL": 37,
            "POSITION": 36,
            "TEXCOORD_0": 38
          },
          "indices": 39,
          "material": 0,
          "mode": 4
        }
      ]
    }
  ],
  "nodes": [
    {
      "children": [
        1
      ],
      "matrix": [
        0.997888445854187,
        0.0649511069059372,
        1.4422042872372297e-17,
        0.0,
        0.0,
        2.220446049250313e-16,
        -1.0,
        0.0,
        -0.0649511069059372,
        0.997888445854187,
        2.2157574571894645e-16,
        0.0,
        0.0,
        0.0,
        0.0,
        1.0
      ],
      "name": "Sketchfab_model"
    },
    {
      "children": [
        2
      ],
      "matrix": [
        1.0,
        0.0,
        0.0,
        0.0,
        0.0,
        -1.0,
        0.0,
        0.0,
        0.0,
        0.0,
        -1.0,
        0.0,
        0.0,
        0.0,
        0.0,
        1.0
      ],
      "name": "model.fbx"
    },
    {
      "children": [
        3
      ],
      "name": "RootNode"
    },
    {
      "children": [
        4,
        5,
        6,
        7,
        8,
        9,
        10,
        11,
        12,
        13
      ],
      "name": "Model"
    },
    {
      "mesh": 0,
      "name": "Model_material0_0"
    },
    {
      "mesh": 1,
      "name": "Model_material0_0"
    },
    {
      "mesh": 2,
      "name": "Model_material0_0"
    },
    {
      "mesh": 3,
      "name": "Model_material0_0"
    },
    {
      "mesh": 4,
      "name": "Model_material0_0"
    },
    {
      "mesh": 5,
      "name": "Model_material0_0"
    },
    {
      "mesh": 6,
      "name": "Model_material0_0"
    },
    {
      "mesh": 7,
      "name": "Model_material0_0"
    },
    {
      "mesh": 8,
      "name": "Model_material0_0"
    },
    {
      "mesh": 9,
      "name": "Model_material0_0"
    }
  ],
  "samplers": [
    {
      "magFilter": 9729,
      "minFilter": 9987,
      "wrapS": 10497,
      "wrapT": 10497
    }
  ],
  "scene": 0,
  "scenes": [
    {
      "name": "Sketchfab_Scene",
      "nodes": [
        0
      ]
    }
  ],
  "textures": [
    {
      "sampler": 0,
      "source": 0
    }
  ]
}
